<svg width="402" height="410" viewBox="0 0 402 410" fill="none" xmlns="http://www.w3.org/2000/svg">
<path fill-rule="evenodd" clip-rule="evenodd" d="M402 167.212V151.287C402 143.121 395.379 136.5 387.213 136.5C395.379 136.5 402 129.879 402 121.712V105.787C402 97.6206 395.379 91 387.213 91H371.288C363.121 91 356.5 84.3794 356.5 76.2125V60.2875C356.5 52.1206 349.879 45.5 341.713 45.5H325.788C317.621 45.5 311 38.8794 311 30.7125V14.7875C311 6.62059 304.379 0 296.213 0H280.288C272.121 0 265.5 6.62059 265.5 14.7875V30.7125V45.5V60.2875V76.2125C265.5 84.3794 258.879 91 250.713 91H234.788H205.213C213.379 91 220 84.3794 220 76.2125V60.2875C220 52.1206 226.621 45.5 234.788 45.5H250.713C258.879 45.5 265.5 38.8794 265.5 30.7125V14.7875C265.5 6.62059 258.879 0 250.713 0H234.788C226.621 0 220 6.62059 220 14.7875V30.7125C220 38.8794 213.379 45.5 205.213 45.5H143.788C135.621 45.5 129 38.8794 129 30.7125V14.7875C129 6.62059 122.379 0 114.213 0H98.2875C90.1206 0 83.5 6.62059 83.5 14.7875V30.7125C83.5 38.8794 76.8794 45.5 68.7125 45.5H52.7875C44.6206 45.5 38 52.1206 38 60.2875V76.2125C38 84.3794 31.3794 91 23.2125 91H7.2875C-0.879408 91 -7.5 97.6206 -7.5 105.787V121.712C-7.5 129.879 -0.879408 136.5 7.2875 136.5H23.2125C31.3794 136.5 38 143.121 38 151.287V167.212C38 175.379 44.6206 182 52.7875 182H68.7125C76.8794 182 83.5 188.621 83.5 196.787V212.712C83.5 220.879 76.8794 227.5 68.7125 227.5H7.2875C-0.879408 227.5 -7.5 220.879 -7.5 212.712V196.787C-7.5 188.621 -14.1206 182 -22.2875 182H-38.2125C-46.3794 182 -53 188.621 -53 196.787V212.712V242.287V258.212C-53 266.379 -46.3794 273 -38.2125 273H114.213C122.379 273 129 266.379 129 258.212C129 266.379 135.621 273 143.788 273H159.713C167.879 273 174.5 279.621 174.5 287.787V303.712C174.5 311.879 181.121 318.5 189.288 318.5C181.121 318.5 174.5 325.121 174.5 333.287V349.212C174.5 357.379 181.121 364 189.288 364H205.213C213.379 364 220 370.621 220 378.787V394.712C220 402.879 226.621 409.5 234.788 409.5H250.713C258.879 409.5 265.5 402.879 265.5 394.712V378.787C265.5 370.621 272.121 364 280.288 364H296.213C304.379 364 311 357.379 311 349.212V318.5V303.712C311 311.879 317.621 318.5 325.788 318.5H341.713C349.879 318.5 356.5 311.879 356.5 303.712V287.787C356.5 279.621 349.879 273 341.713 273H325.788C317.621 273 311 266.379 311 258.212V242.287C311 234.121 317.621 227.5 325.788 227.5H341.713C349.879 227.5 356.5 220.879 356.5 212.712C356.5 220.879 363.121 227.5 371.288 227.5H387.213C395.379 227.5 402 220.879 402 212.712V196.787C402 188.621 395.379 182 387.213 182C395.379 182 402 175.379 402 167.212ZM311 151.287V167.212C311 175.379 304.379 182 296.213 182H280.288C272.121 182 265.5 188.621 265.5 196.787V212.712C265.5 220.879 258.879 227.5 250.713 227.5H189.288C181.121 227.5 174.5 220.879 174.5 212.712V196.787V167.212V151.287C174.5 143.121 181.121 136.5 189.288 136.5H250.713H296.213C304.379 136.5 311 143.121 311 151.287ZM234.788 318.5H250.713C258.879 318.5 265.5 325.121 265.5 333.287V349.212C265.5 357.379 258.879 364 250.713 364H234.788C226.621 364 220 357.379 220 349.212V333.287C220 325.121 226.621 318.5 234.788 318.5ZM98.2875 136.5H114.213C122.379 136.5 129 129.879 129 121.712V151.287V167.212C129 175.379 122.379 182 114.213 182H98.2875C90.1206 182 83.5 175.379 83.5 167.212V151.287C83.5 143.121 90.1206 136.5 98.2875 136.5ZM83.5 105.787V121.712C83.5 129.879 76.8794 136.5 68.7125 136.5H52.7875C44.6206 136.5 38 129.879 38 121.712V105.787C38 97.6206 44.6206 91 52.7875 91H68.7125C76.8794 91 83.5 97.6206 83.5 105.787Z" fill="white"/>
<path d="M357 167.213V151.288C357 143.397 363.397 137 371.288 137H387.213C395.103 137 401.5 143.397 401.5 151.288V167.213C401.5 175.103 395.103 181.5 387.213 181.5H371.288C362.844 181.5 356 188.345 356 196.788V212.713C356 220.603 349.603 227 341.713 227H325.788C317.344 227 310.5 233.845 310.5 242.288V258.213C310.5 266.656 317.344 273.5 325.788 273.5H341.713C349.603 273.5 356 279.897 356 287.788V303.713C356 311.603 349.603 318 341.713 318H325.788C317.897 318 311.5 311.603 311.5 303.713V287.788C311.5 279.345 304.656 272.5 296.213 272.5H280.288C272.397 272.5 266 266.103 266 258.213V227.5V196.788C266 188.897 272.397 182.5 280.288 182.5H325.788H341.713C350.156 182.5 357 175.656 357 167.213Z" fill="white" stroke="#E0E0E0"/>
<path d="M174.5 242.288V258.213C174.5 266.379 181.121 273 189.288 273H205.213C213.379 273 220 279.621 220 287.788V303.713C220 311.879 213.379 318.5 205.213 318.5H189.288C181.121 318.5 174.5 311.879 174.5 303.713V287.788C174.5 279.621 167.879 273 159.713 273H143.788C135.621 273 129 266.379 129 258.213V242.288C129 234.121 135.621 227.5 143.788 227.5H159.713C167.879 227.5 174.5 234.121 174.5 242.288Z" fill="#EDF0FA"/>
<path d="M98.2875 91.5H114.213C122.103 91.5 128.5 97.8967 128.5 105.788V121.713C128.5 129.603 122.103 136 114.213 136H98.2875C90.3967 136 84 129.603 84 121.713V105.788C84 97.3444 77.1556 90.5 68.7125 90.5H52.7875C44.8967 90.5 38.5 84.1033 38.5 76.2125V60.2875C38.5 52.3967 44.8967 46 52.7875 46H68.7125C77.1556 46 84 39.1556 84 30.7125V14.7875C84 6.89673 90.3967 0.5 98.2875 0.5H114.213C122.103 0.5 128.5 6.89673 128.5 14.7875V30.7125C128.5 39.1556 135.344 46 143.788 46H205.213C213.656 46 220.5 39.1556 220.5 30.7125V14.7875C220.5 6.89673 226.897 0.5 234.788 0.5H250.713C258.603 0.5 265 6.89673 265 14.7875V30.7125C265 38.6033 258.603 45 250.713 45H234.788C226.344 45 219.5 51.8444 219.5 60.2875V76.2125C219.5 84.1033 213.103 90.5 205.213 90.5H143.788C135.897 90.5 129.5 84.1033 129.5 76.2125V60.2875C129.5 51.8444 122.656 45 114.213 45H98.2875C89.8444 45 83 51.8444 83 60.2875V76.2125C83 84.6556 89.8444 91.5 98.2875 91.5Z" fill="white" stroke="#E0E0E0"/>
</svg>
