<?xml version="1.0" encoding="utf-8"?>
<!-- Generator: Adobe Illustrator 21.0.0, SVG Export Plug-In . SVG Version: 6.00 Build 0)  -->
<svg version="1.1" id="_x31__px" xmlns="http://www.w3.org/2000/svg" xmlns:xlink="http://www.w3.org/1999/xlink" x="0px" y="0px" viewBox="0 0 28 28" enable-background="new 0 0 28 28" xml:space="preserve" width="128" height="128">
<path fill="#FF7C66" d="M25.718,12.672c0.613-6.681-5.28-12.015-11.863-10.726C7.94,3.105,1.912,6.083,1.292,13.339
	c-1.25,14.62,19.368,13.995,22.492,7.622C24.874,18.738,25.441,15.694,25.718,12.672z" style="stroke: currentColor; stroke-width: 1px; stroke-linecap: round;"/>
<path d="M24.5,23h-21C2.673,23,2,22.327,2,21.5v-14C2,6.673,2.673,6,3.5,6h21C25.327,6,26,6.673,26,7.5v14
	C26,22.327,25.327,23,24.5,23z M3.5,7C3.225,7,3,7.224,3,7.5v14C3,21.776,3.225,22,3.5,22h21c0.275,0,0.5-0.224,0.5-0.5v-14
	C25,7.224,24.775,7,24.5,7H3.5z" style="stroke: currentColor; stroke-width: 1px; stroke-linecap: round;"/>
<path d="M17.5,26h-7c-0.202,0-0.385-0.122-0.462-0.309s-0.034-0.402,0.108-0.545c1.316-1.316,1.334-2.59,1.334-2.644
	C11.481,22.227,11.705,22,11.98,22H16c0.275,0,0.498,0.222,0.5,0.497c0.001,0.063,0.04,1.336,1.354,2.649
	c0.143,0.143,0.186,0.358,0.108,0.545S17.702,26,17.5,26z M11.57,25h4.857c-0.561-0.801-0.782-1.537-0.87-2h-3.13
	C12.344,23.465,12.127,24.2,11.57,25z M16.5,22.5h0.01H16.5z" style="stroke: currentColor; stroke-width: 1px; stroke-linecap: round;"/>
<path d="M25.5,20h-23C2.224,20,2,19.776,2,19.5S2.224,19,2.5,19h23c0.276,0,0.5,0.224,0.5,0.5S25.776,20,25.5,20z" style="stroke: currentColor; stroke-width: 1px; stroke-linecap: round;"/>
<path d="M11.5,17h-6C5.224,17,5,16.776,5,16.5v-8C5,8.224,5.224,8,5.5,8h6C11.776,8,12,8.224,12,8.5v8C12,16.776,11.776,17,11.5,17z
	 M6,16h5V9H6V16z" style="stroke: currentColor; stroke-width: 1px; stroke-linecap: round;"/>
<path d="M21.5,10h-8C13.224,10,13,9.776,13,9.5S13.224,9,13.5,9h8C21.776,9,22,9.224,22,9.5S21.776,10,21.5,10z" style="stroke: currentColor; stroke-width: 1px; stroke-linecap: round;"/>
<path d="M19.5,15h-6c-0.276,0-0.5-0.224-0.5-0.5v-2c0-0.276,0.224-0.5,0.5-0.5h6c0.276,0,0.5,0.224,0.5,0.5v2
	C20,14.776,19.776,15,19.5,15z M14,14h5v-1h-5V14z" style="stroke: currentColor; stroke-width: 1px; stroke-linecap: round;"/>
</svg>
